<svg id="visual" viewBox="0 0 900 600" width="900" height="600" xmlns="http://www.w3.org/2000/svg" xmlns:xlink="http://www.w3.org/1999/xlink" version="1.1"><rect x="0" y="0" width="900" height="600" fill="#212529"></rect><path d="M792 600L780.3 580C768.7 560 745.3 520 751 480C756.7 440 791.3 400 795.3 360C799.3 320 772.7 280 763.3 240C754 200 762 160 770.7 120C779.3 80 788.7 40 793.3 20L798 0L900 0L900 20C900 40 900 80 900 120C900 160 900 200 900 240C900 280 900 320 900 360C900 400 900 440 900 480C900 520 900 560 900 580L900 600Z" fill="#dc731d" stroke-linecap="round" stroke-linejoin="miter"></path></svg>